<svg xmlns="http://www.w3.org/2000/svg" viewBox="0 0 32 32" width="32" height="32">
  <rect width="32" height="32" rx="6" fill="#3A6B4C"/>
  <!-- D -->
  <path d="M5.5 8h5.2c4.4 0 7 2.6 7 7s-2.6 7-7 7H5.5V8zm3 2.4v9.2h2.1c2.8 0 4.1-1.8 4.1-4.6s-1.3-4.6-4.1-4.6H8.5z" fill="#F5F0E1"/>
  <!-- S -->
  <path d="M19.5 18.8c.8.6 1.8 1 2.8 1 1.2 0 1.9-.5 1.9-1.4 0-.9-.8-1.2-2-1.6-1.8-.6-3.2-1.2-3.2-3.2 0-2 1.5-3.2 3.6-3.2 1.2 0 2.2.3 3 .9l-1.1 2c-.6-.4-1.3-.6-2-.6-.9 0-1.5.4-1.5 1.1 0 .8.7 1.1 1.9 1.5 1.9.6 3.3 1.3 3.3 3.3 0 2.1-1.6 3.4-3.8 3.4-1.3 0-2.6-.4-3.5-1.2l1.6-2z" fill="#F5F0E1"/>
</svg>
